HIERARCHY
ROOT Hips
{
	OFFSET 0.00000 0.00000 0.00000
	CHANNELS 6 Xposition Yposition Zposition Zrotation Yrotation Xrotation 
	JOINT LHipJoint
	{
		OFFSET 0 0 0
		CHANNELS 3 Zrotation Yrotation Xrotation
		JOINT LeftHip
		{
			OFFSET 1.28858 -1.83292 1.03970
			CHANNELS 3 Zrotation Yrotation Xrotation
			JOINT LeftKnee
			{
				OFFSET 2.47846 -6.80952 0.00000
				CHANNELS 3 Zrotation Yrotation Xrotation
				JOINT LeftAnkle
				{
					OFFSET 2.75274 -7.56311 0.00000
					CHANNELS 3 Zrotation Yrotation Xrotation
					JOINT LeftToe
					{
						OFFSET 0.12848 -0.35301 1.68223
						CHANNELS 3 Zrotation Yrotation Xrotation
						End Site
						{
							OFFSET 0.00000 -0.00000 0.87311
						}
					}
				}
			}
		}
	}
	JOINT RHipJoint
	{
		OFFSET 0 0 0
		CHANNELS 3 Zrotation Yrotation Xrotation
		JOINT RightHip
		{
			OFFSET -1.31183 -1.83292 1.03970
			CHANNELS 3 Zrotation Yrotation Xrotation
			JOINT RightKnee
			{
				OFFSET -2.44740 -6.72417 0.00000
				CHANNELS 3 Zrotation Yrotation Xrotation
				JOINT RightAnkle
				{
					OFFSET -2.67343 -7.34519 0.00000
					CHANNELS 3 Zrotation Yrotation Xrotation
					JOINT RightToe
					{
						OFFSET -0.16914 -0.46471 1.77626
						CHANNELS 3 Zrotation Yrotation Xrotation
						End Site
						{
							OFFSET -0.00000 -0.00000 0.92777
						}
					}
				}
			}
		}
	}
	JOINT lowerback
	{
		OFFSET 0 0 0
		CHANNELS 3 Zrotation Yrotation Xrotation
		JOINT Chest
		{
			OFFSET 0.01249 2.14252 0.03842
			CHANNELS 3 Zrotation Yrotation Xrotation
			JOINT Chest2
			{
				OFFSET -0.02957 2.14199 -0.03751
				CHANNELS 3 Zrotation Yrotation Xrotation
				JOINT lowerneck
				{
					OFFSET 0 0 0
					CHANNELS 3 Zrotation Yrotation Xrotation
					JOINT Neck
					{
						OFFSET -0.01678 1.65709 -0.05476
						CHANNELS 3 Zrotation Yrotation Xrotation
						JOINT Head
						{
							OFFSET 0.07912 1.58331 -0.11843
							CHANNELS 3 Zrotation Yrotation Xrotation
							End Site
							{
								OFFSET 0.03298 1.73940 -0.04271
							}
						}
					}
				}
				JOINT LeftCollar
				{
					OFFSET 0 0 0
					CHANNELS 3 Zrotation Yrotation Xrotation
					JOINT LeftShoulder
					{
						OFFSET 3.39556 1.16496 0.08673
CHANNELS 3 Zrotation Xrotation Yrotation
						JOINT LeftElbow
						{
OFFSET 0 -5.239100 -0.000000
CHANNELS 3 Zrotation Xrotation Yrotation
							JOINT LeftWrist
							{
OFFSET 0 -3.314670 0.000000
CHANNELS 3 Zrotation Xrotation Yrotation
								JOINT lhand
								{
									OFFSET 0 0 0
CHANNELS 3 Zrotation Xrotation Yrotation
									JOINT LFingers
									{
OFFSET 0 -0.965900 0.000000
CHANNELS 3 Zrotation Xrotation Yrotation
										End Site
										{
OFFSET 0 -0.778730 0.000000
										}
									}
								}
								JOINT LThumb
								{
OFFSET 0 0.000000 0.000000
CHANNELS 3 Zrotation Xrotation Yrotation
									End Site
									{
OFFSET 0 -0.790620 0.790620
									}
								}
							}
						}
					}
				}
				JOINT RightCollar
				{
					OFFSET 0 0 0
					CHANNELS 3 Zrotation Yrotation Xrotation
					JOINT RightShoulder
					{
						OFFSET -3.27193 1.31331 0.33940
CHANNELS 3 Zrotation Xrotation Yrotation
						JOINT RightElbow
						{
OFFSET 0 -5.302520 0.000000
CHANNELS 3 Zrotation Xrotation Yrotation
							JOINT RightWrist
							{
OFFSET 0 -3.678750 0.000000
CHANNELS 3 Zrotation Xrotation Yrotation
								JOINT rhand
								{
									OFFSET 0 0 0
CHANNELS 3 Zrotation Xrotation Yrotation
									JOINT RFingers
									{
OFFSET 0 -0.594810 0.000000
CHANNELS 3 Zrotation Xrotation Yrotation
										End Site
										{
OFFSET 0 -0.479550 0.000000
										}
									}
								}
								JOINT RThumb
								{
OFFSET 0 0.000000 0.000000
CHANNELS 3 Zrotation Xrotation Yrotation
									End Site
									{
OFFSET 0 -0.486870 0.486870
									}
								}
							}
						}
					}
				}
			}
		}
	}
}
MOTION
Frames: 7
Frame Time: 0.008333333333333333
12.937372 23.192458 3.797845 -180.310574 -4.478928 -323.225481 0.000000 0.000000 0.000000 -2.297966 -19.473010 -75.628825 10.313176 17.581578 60.529221 39.646867 1.749202 -168.002117 1.889152 8.629893 24.645298 0.000000 0.000000 0.000000 -0.446723 12.555902 -80.961027 -8.368675 -16.382030 53.877221 -40.190025 -7.926994 -179.086967 -0.182005 2.745639 -7.571521 4.347906 1.677483 35.864872 0.754327 0.894352 14.193782 -1.714128 -1.086812 -2.247671 -4.164271 -0.255346 -0.309030 4.454710 -3.041990 -32.425589 2.656304 -1.832232 -10.140978 0.000000 0.000000 0.000000 10.546534 -44.044900 -64.376309 23.818355 -34.961727 7.606359 -16.335575 -36.012647 21.762217 0.000000 0.000000 0.000000 -7.125000 0.000000 0.000000 -27.395204 9.061231 -26.003072 0.000000 0.000000 0.000000 -23.517807 -24.880307 43.329531 -38.252112 -46.986889 -17.153809 24.671206 -50.311175 29.249071 0.000000 0.000000 0.000000 7.125000 0.000000 0.000000 54.233486 51.337662 -11.286897
12.949752 23.600751 3.664539 -178.683806 -5.381496 -335.398806 0.000000 0.000000 0.000000 -3.111425 -20.394404 -75.681883 9.394362 17.053766 57.442469 39.908161 4.983624 -170.401330 2.182839 9.237053 26.539580 0.000000 0.000000 0.000000 -0.859515 13.045804 -83.315369 -7.292058 -15.571715 49.968412 -40.226144 -9.044028 179.735773 -0.308393 3.567003 -9.862000 2.830215 1.841499 37.498190 0.157543 0.938255 13.946922 -1.540919 -1.009450 -2.971465 -3.158556 -0.377905 -0.317196 4.134468 -3.130344 -33.386746 2.369565 -1.764536 -10.525922 0.000000 0.000000 0.000000 12.411392 -40.892244 -60.530651 30.150238 -41.000165 11.515958 -19.334022 -41.118120 17.893715 0.000000 0.000000 0.000000 -7.125000 0.000000 0.000000 -29.594625 12.386598 -26.457823 0.000000 0.000000 0.000000 -21.446927 -21.609376 42.336056 -45.601835 -51.042769 -22.710733 20.549670 -57.591943 31.793389 0.000000 0.000000 0.000000 7.125000 0.000000 0.000000 53.435984 53.854254 -14.882355
12.970506 24.028754 3.685853 -177.893701 -5.119636 -347.491609 0.000000 0.000000 0.000000 -2.644802 -21.002428 -76.003633 8.401130 16.405007 53.992562 40.213201 8.894854 -172.938977 2.136237 9.144174 26.247347 0.000000 0.000000 0.000000 0.225310 13.361783 -85.756734 -6.502020 -14.896787 46.962879 -40.217240 -9.707883 178.075622 -0.484520 4.460265 -12.375906 2.429461 1.696324 38.374247 -0.096224 1.074462 13.565905 -1.648549 -0.773393 -3.682268 -2.234793 -0.368954 0.233508 3.653102 -3.030810 -34.761533 2.033391 -1.539108 -11.206464 0.000000 0.000000 0.000000 13.965270 -39.201772 -59.894502 36.120425 -45.587362 15.611263 -22.522992 -38.939539 15.609272 0.000000 0.000000 0.000000 -7.125000 0.000000 0.000000 -31.676479 14.134610 -27.709905 0.000000 0.000000 0.000000 -21.056944 -18.802423 43.195544 -53.261810 -54.218136 -28.803228 18.419792 -58.885840 33.836287 0.000000 0.000000 0.000000 7.125000 0.000000 0.000000 53.781208 55.664992 -17.698012
13.021191 24.448920 3.925351 -177.353067 -4.461902 -358.216195 0.000000 0.000000 0.000000 -1.165118 -21.600579 -78.267635 7.579500 15.800718 51.032873 40.559493 13.112455 -175.473462 2.114374 9.100463 26.109926 0.000000 0.000000 0.000000 1.210716 13.642190 -90.382322 -6.021898 -14.449405 45.069486 -40.109895 -9.502486 175.504035 -0.736587 5.479989 -15.283589 1.810189 1.635380 36.455938 -0.098437 1.364038 13.362376 -1.442391 -0.361755 -3.312064 -2.009796 -0.321102 0.863498 3.581019 -2.696151 -36.018843 1.933461 -1.140579 -11.865421 0.000000 0.000000 0.000000 13.813207 -38.967643 -60.836601 38.879544 -47.390316 17.610621 -23.661367 -32.111884 18.295236 0.000000 0.000000 0.000000 -7.125000 0.000000 0.000000 -31.720939 11.549927 -29.888270 0.000000 0.000000 0.000000 -21.359826 -17.396346 44.441496 -58.073468 -55.772338 -32.743476 22.290768 -56.174187 31.939705 0.000000 0.000000 0.000000 7.125000 0.000000 0.000000 54.972224 53.612086 -15.187495
13.120987 24.806603 4.388877 -176.941609 -3.964917 -366.883082 0.000000 0.000000 0.000000 1.384651 -21.134832 -83.726890 7.202537 15.500069 49.636196 40.912164 16.967948 -177.349357 2.092714 9.056590 25.972576 0.000000 0.000000 0.000000 1.256430 14.958384 -98.314005 -5.945620 -14.375356 44.762808 -39.919638 -8.360142 172.660511 -1.147808 6.797005 -19.117534 0.486655 1.868769 30.607633 0.050073 1.898620 13.732837 -0.778922 0.204071 -1.223447 -1.960060 -0.560320 1.099608 3.575799 -2.716487 -37.074840 1.897411 -0.862010 -12.363482 0.000000 0.000000 0.000000 13.674353 -38.649958 -60.689394 42.220236 -49.324134 20.109727 -25.824904 -31.196516 19.149660 0.000000 0.000000 0.000000 -7.125000 0.000000 0.000000 -32.593163 10.452245 -32.035007 0.000000 0.000000 0.000000 -21.528321 -17.166467 45.096153 -62.121196 -56.845455 -36.112409 22.365129 -54.145150 30.191520 0.000000 0.000000 0.000000 7.125000 0.000000 0.000000 53.334563 52.408004 -12.656149
13.243284 25.003034 4.956188 -177.174554 -3.809397 -375.520442 0.000000 0.000000 0.000000 4.055727 -19.280131 -89.668365 7.628691 15.838245 51.212444 41.146337 19.402591 -178.853916 2.032177 8.932864 25.585533 0.000000 0.000000 0.000000 1.256507 17.124277 -105.630554 -6.601432 -14.985429 47.347720 -39.704165 -7.087009 169.823944 -1.509950 7.760407 -21.988796 -0.451856 2.111418 25.917498 0.362462 2.516287 13.719851 0.032997 0.721015 0.828243 -1.862474 -1.026897 0.730208 3.477712 -2.899131 -37.039830 1.798389 -0.700885 -12.267591 0.000000 0.000000 0.000000 14.352429 -38.221826 -59.478461 47.023828 -51.719762 23.817908 -25.752890 -32.726440 19.376480 0.000000 0.000000 0.000000 -7.125000 0.000000 0.000000 -32.517385 10.257776 -32.080783 0.000000 0.000000 0.000000 -21.500109 -17.725830 44.833834 -66.451149 -57.796152 -39.757117 16.830150 -53.675602 30.501816 0.000000 0.000000 0.000000 7.125000 0.000000 0.000000 49.149548 53.669383 -12.886235
13.366091 24.990777 5.531290 -177.228608 -3.753132 -385.499534 0.000000 0.000000 0.000000 4.533068 -16.798513 -93.266176 9.252325 16.958929 56.946417 41.124842 19.883068 179.279790 2.039038 8.946846 25.629306 0.000000 0.000000 0.000000 1.312903 19.200659 -109.006613 -8.287288 -16.317239 53.575995 -39.449323 -6.399275 166.716550 -1.602014 7.982770 -22.661666 -1.564784 2.526442 24.134605 0.903429 3.246817 13.916364 1.139717 1.157732 1.799330 -2.008795 -1.543616 0.143850 3.414321 -3.016514 -35.707812 1.740434 -0.607524 -11.577191 0.000000 0.000000 0.000000 14.988399 -38.531105 -58.677325 50.996517 -53.386476 26.972838 -20.685629 -32.637067 22.344398 0.000000 0.000000 0.000000 -7.125000 0.000000 0.000000 -29.552955 8.186916 -29.403891 0.000000 0.000000 0.000000 -21.692121 -18.778045 43.354991 -69.518474 -58.353548 -42.360578 11.828238 -51.836860 30.193702 0.000000 0.000000 0.000000 7.125000 0.000000 0.000000 44.616781 54.403553 -12.131258
